<svg width="29" height="28" viewBox="0 0 29 28" fill="none" xmlns="http://www.w3.org/2000/svg">
<path fill-rule="evenodd" clip-rule="evenodd" d="M15.5022 5.83287C15.5022 5.18853 14.9799 4.6662 14.3356 4.6662C13.6912 4.6662 13.1689 5.18853 13.1689 5.83287V15.2668L9.91048 12.0084C9.45487 11.5528 8.71618 11.5528 8.26056 12.0084C7.80495 12.464 7.80495 13.2027 8.26056 13.6583L12.6857 18.0834C13.5969 18.9946 15.0743 18.9946 15.9855 18.0834L20.4083 13.6606C20.8639 13.205 20.8639 12.4663 20.4083 12.0107C19.9527 11.5551 19.214 11.5551 18.7584 12.0107L15.5022 15.2668V5.83287Z" fill="#9994CE"/>
<path fill-rule="evenodd" clip-rule="evenodd" d="M5.00001 16.3333C5.64434 16.3333 6.16668 16.8556 6.16668 17.5V19.8333C6.16668 20.4776 6.68901 21 7.33334 21H21.3333C21.9777 21 22.5 20.4776 22.5 19.8333V17.5C22.5 16.8556 23.0223 16.3333 23.6667 16.3333C24.311 16.3333 24.8333 16.8556 24.8333 17.5V19.8333C24.8333 21.7663 23.2663 23.3333 21.3333 23.3333H7.33334C5.40035 23.3333 3.83334 21.7663 3.83334 19.8333V17.5C3.83334 16.8556 4.35568 16.3333 5.00001 16.3333Z" fill="#9994CE"/>
</svg>
