<svg width="current" height="current" viewBox="0 0 80 80" fill="none" xmlns="http://www.w3.org/2000/svg">
<path d="M28.7498 43.75C28.0082 43.75 27.2831 43.5301 26.6664 43.118C26.0498 42.706 25.5691 42.1203 25.2853 41.4351C25.0015 40.7499 24.9272 39.9959 25.0719 39.2684C25.2166 38.541 25.5737 37.8728 26.0982 37.3484C26.6226 36.8239 27.2908 36.4668 28.0182 36.3221C28.7457 36.1774 29.4997 36.2516 30.1849 36.5355C30.8701 36.8193 31.4558 37.2999 31.8678 37.9166C32.2799 38.5333 32.4998 39.2583 32.4998 40C32.4998 40.9946 32.1047 41.9484 31.4015 42.6517C30.6982 43.3549 29.7444 43.75 28.7498 43.75ZM51.2498 36.25C50.5081 36.25 49.7831 36.4699 49.1664 36.882C48.5498 37.2941 48.0691 37.8797 47.7853 38.565C47.5015 39.2502 47.4272 40.0042 47.5719 40.7316C47.7166 41.459 48.0737 42.1272 48.5982 42.6517C49.1226 43.1761 49.7908 43.5333 50.5182 43.678C51.2457 43.8227 51.9997 43.7484 52.6849 43.4646C53.3701 43.1807 53.9558 42.7001 54.3678 42.0834C54.7799 41.4667 54.9998 40.7417 54.9998 40C54.9998 39.0055 54.6047 38.0516 53.9015 37.3484C53.1982 36.6451 52.2444 36.25 51.2498 36.25ZM47.4155 50.3844C45.1889 51.7663 42.6204 52.4986 39.9998 52.4986C37.3792 52.4986 34.8108 51.7663 32.5842 50.3844C32.0231 50.0305 31.3444 49.914 30.6974 50.0605C30.0504 50.207 29.4881 50.6045 29.1342 51.1656C28.7803 51.7267 28.6638 52.4054 28.8103 53.0524C28.9568 53.6994 29.3544 54.2617 29.9155 54.6156C32.9409 56.5017 36.4346 57.5015 39.9998 57.5015C43.565 57.5015 47.0587 56.5017 50.0842 54.6156C50.6453 54.2617 51.0428 53.6994 51.1893 53.0524C51.3359 52.4054 51.2194 51.7267 50.8655 51.1656C50.5116 50.6045 49.9493 50.207 49.3023 50.0605C48.6553 49.914 47.9766 50.0305 47.4155 50.3844ZM72.4998 40C72.4998 46.4279 70.5937 52.7114 67.0226 58.056C63.4514 63.4006 58.3756 67.5662 52.437 70.0261C46.4984 72.4859 39.9638 73.1296 33.6594 71.8755C27.355 70.6215 21.5641 67.5262 17.0189 62.981C12.4737 58.4358 9.37833 52.6448 8.12431 46.3405C6.87029 40.0361 7.5139 33.5014 9.97375 27.5628C12.4336 21.6242 16.5992 16.5484 21.9438 12.9773C27.2884 9.40611 33.5719 7.50002 39.9998 7.50002C48.6166 7.50911 56.8778 10.9361 62.9707 17.0291C69.0637 23.1221 72.4907 31.3833 72.4998 40ZM67.4998 40C67.4911 32.9208 64.7561 26.1169 59.8627 21.0012C54.9693 15.8855 48.2936 12.8511 41.2217 12.5281C37.5998 17.6188 37.4998 22.4625 37.4998 22.5C37.4998 23.1631 37.7632 23.7989 38.2321 24.2678C38.7009 24.7366 39.3368 25 39.9998 25C40.6629 25 41.2988 24.7366 41.7676 24.2678C42.2364 23.7989 42.4998 23.1631 42.4998 22.5C42.4998 21.837 42.7632 21.2011 43.2321 20.7322C43.7009 20.2634 44.3368 20 44.9998 20C45.6629 20 46.2988 20.2634 46.7676 20.7322C47.2364 21.2011 47.4998 21.837 47.4998 22.5C47.4998 24.4891 46.7097 26.3968 45.3031 27.8033C43.8966 29.2098 41.989 30 39.9998 30C38.0107 30 36.1031 29.2098 34.6965 27.8033C33.29 26.3968 32.4998 24.4891 32.4998 22.5C32.4998 22.2719 32.5405 18.0313 35.1436 12.9281C29.9947 13.8519 25.2161 16.2251 21.3685 19.7691C17.5209 23.3132 14.764 27.8812 13.4212 32.937C12.0785 37.9928 12.2056 43.3268 13.7876 48.3129C15.3697 53.299 18.3411 57.7305 22.3531 61.0873C26.3651 64.4441 31.2514 66.5869 36.4384 67.2644C41.6254 67.9418 46.8981 67.1258 51.6377 64.912C56.3773 62.6982 60.3871 59.1786 63.1967 54.766C66.0063 50.3535 67.4991 45.2311 67.4998 40Z" fill="#9994CE"/>
</svg>
