<svg width="current" height="current" viewBox="0 0 32 32" fill="none" xmlns="http://www.w3.org/2000/svg">
<path fill-rule="evenodd" clip-rule="evenodd" d="M24.0001 14.6665C24.0001 19.8212 19.8214 23.9998 14.6667 23.9998C9.51209 23.9998 5.33341 19.8212 5.33341 14.6665C5.33341 9.51185 9.51209 5.33317 14.6667 5.33317C19.8214 5.33317 24.0001 9.51185 24.0001 14.6665ZM24.0426 22.1568C25.6848 20.1039 26.6667 17.4999 26.6667 14.6665C26.6667 8.03909 21.2942 2.6665 14.6667 2.6665C8.03933 2.6665 2.66675 8.03909 2.66675 14.6665C2.66675 21.2939 8.03933 26.6665 14.6667 26.6665C17.5001 26.6665 20.1041 25.6845 22.157 24.0424L25.7239 27.6093C26.2446 28.13 27.0889 28.13 27.6096 27.6093C28.1303 27.0886 28.1303 26.2444 27.6096 25.7237L24.0426 22.1568Z" fill="#34393E"/>
</svg>
