<svg width="current" height="current" viewBox="0 0 28 28" fill="none" xmlns="http://www.w3.org/2000/svg">
<path fill-rule="evenodd" clip-rule="evenodd" d="M12.9333 19.1333C13.763 18.5111 14.9037 18.5111 15.7333 19.1333L19.4667 21.9333C20.2358 22.5101 21.3333 21.9614 21.3333 21V5.83331C21.3333 5.18898 20.811 4.66665 20.1667 4.66665H8.5C7.85567 4.66665 7.33333 5.18898 7.33333 5.83331V21C7.33333 21.9614 8.43089 22.5101 9.2 21.9333L12.9333 19.1333ZM14.3333 21L18.0667 23.8C20.374 25.5305 23.6667 23.8841 23.6667 21V5.83331C23.6667 3.90032 22.0997 2.33331 20.1667 2.33331H8.5C6.567 2.33331 5 3.90032 5 5.83331V21C5 23.8841 8.29267 25.5305 10.6 23.8L14.3333 21Z" fill="#D7D6D6"/>
<path fill-rule="evenodd" clip-rule="evenodd" d="M9.66669 8.16667C9.66669 7.52233 10.189 7 10.8334 7H17.8334C18.4777 7 19 7.52233 19 8.16667C19 8.811 18.4777 9.33333 17.8334 9.33333H10.8334C10.189 9.33333 9.66669 8.811 9.66669 8.16667Z" fill="#D7D6D6"/>
</svg>
