<svg width="current" height="current" viewBox="0 0 24 24" fill="none" xmlns="http://www.w3.org/2000/svg">
<path d="M17.6293 12.7959L10.1293 20.2959C9.91793 20.5072 9.63128 20.626 9.3324 20.626C9.03351 20.626 8.74686 20.5072 8.53552 20.2959C8.32418 20.0846 8.20544 19.7979 8.20544 19.499C8.20544 19.2001 8.32418 18.9135 8.53552 18.7021L15.2396 12L8.5374 5.2959C8.43275 5.19125 8.34974 5.06702 8.2931 4.93029C8.23647 4.79356 8.20732 4.64702 8.20732 4.49902C8.20732 4.35103 8.23647 4.20448 8.2931 4.06776C8.34974 3.93103 8.43275 3.80679 8.5374 3.70215C8.64204 3.5975 8.76628 3.51449 8.90301 3.45785C9.03973 3.40122 9.18628 3.37207 9.33427 3.37207C9.48226 3.37207 9.62881 3.40122 9.76554 3.45785C9.90226 3.51449 10.0265 3.5975 10.1311 3.70215L17.6311 11.2021C17.7359 11.3068 17.819 11.4311 17.8756 11.5679C17.9322 11.7047 17.9613 11.8513 17.9611 11.9994C17.9609 12.1475 17.9315 12.2941 17.8746 12.4307C17.8176 12.5674 17.7343 12.6915 17.6293 12.7959Z" fill="#D7D6D6"/>
</svg>
