<svg width="current" height="current" viewBox="0 0 32 33" fill="none" xmlns="http://www.w3.org/2000/svg">
<path fill-rule="evenodd" clip-rule="evenodd" d="M24 7.16667H8C7.26362 7.16667 6.66667 7.76362 6.66667 8.5V24.5C6.66667 25.2364 7.26362 25.8333 8 25.8333H24C24.7364 25.8333 25.3333 25.2364 25.3333 24.5V8.5C25.3333 7.76362 24.7364 7.16667 24 7.16667ZM8 4.5C5.79086 4.5 4 6.29086 4 8.5V24.5C4 26.7091 5.79086 28.5 8 28.5H24C26.2091 28.5 28 26.7091 28 24.5V8.5C28 6.29086 26.2091 4.5 24 4.5H8Z" fill="current"/>
<path fill-rule="evenodd" clip-rule="evenodd" d="M22.276 11.5572C22.7967 12.0779 22.7967 12.9221 22.276 13.4428L15.2188 20.5C14.1774 21.5414 12.489 21.5414 11.4476 20.5L9.05703 18.1095C8.53633 17.5888 8.53633 16.7446 9.05703 16.2239C9.57773 15.7032 10.4219 15.7032 10.9426 16.2239L13.3332 18.6144L20.3904 11.5572C20.9111 11.0365 21.7553 11.0365 22.276 11.5572Z" fill="current"/>
</svg>
