<svg width="current" height="current" viewBox="0 0 28 28" fill="none" xmlns="http://www.w3.org/2000/svg">
<path fill-rule="evenodd" clip-rule="evenodd" d="M8.5 2.33331C6.567 2.33331 5 3.90032 5 5.83331V22.1666C5 24.5701 7.74389 25.9421 9.66667 24.5L13.9833 21.2625C14.1907 21.1069 14.4759 21.1069 14.6833 21.2625L19 24.5C20.9228 25.9421 23.6667 24.5701 23.6667 22.1666V5.83331C23.6667 3.90032 22.0997 2.33331 20.1667 2.33331H8.5ZM10.8333 6.99998C10.189 6.99998 9.66667 7.52231 9.66667 8.16665C9.66667 8.81098 10.189 9.33331 10.8333 9.33331H17.8333C18.4777 9.33331 19 8.81098 19 8.16665C19 7.52231 18.4777 6.99998 17.8333 6.99998H10.8333Z" fill="#FECF26"/>
</svg>
