<svg width="24" height="24" viewBox="0 0 24 24" fill="none" xmlns="http://www.w3.org/2000/svg">
<path fill-rule="evenodd" clip-rule="evenodd" d="M14.5356 3.80757C15.7071 2.636 17.6066 2.636 18.7782 3.80757L20.1924 5.22179C21.364 6.39336 21.364 8.29285 20.1924 9.46443L9.7999 19.8569C9.6603 19.9965 9.4825 20.0917 9.28891 20.1304L3.98561 21.1911C3.28589 21.331 2.66897 20.7141 2.80892 20.0144L3.86958 14.7111C3.90829 14.5175 4.00345 14.3397 4.14305 14.2001L14.5356 3.80757ZM17.364 5.22179L18.7782 6.636C19.1687 7.02653 19.1687 7.65969 18.7782 8.05021L17.364 9.46443L14.5356 6.636L15.9498 5.22179C16.3403 4.83126 16.9735 4.83126 17.364 5.22179ZM13.1213 8.05022L5.77136 15.4002L5.06425 18.9357L8.59978 18.2286L15.9498 10.8786L13.1213 8.05022Z" fill="current"/>
</svg>
