<svg width="24" height="24" viewBox="0 0 24 24" fill="none" xmlns="http://www.w3.org/2000/svg">
<path fill-rule="evenodd" clip-rule="evenodd" d="M18.364 2.80757C17.1924 1.636 15.2929 1.636 14.1213 2.80757L2.80763 14.1213C1.63606 15.2929 1.63606 17.1924 2.80763 18.3639L5.63606 21.1924C6.80763 22.3639 8.70713 22.3639 9.8787 21.1924L21.1924 9.87864C22.364 8.70707 22.364 6.80757 21.1924 5.636L18.364 2.80757ZM16.9498 4.22179C16.5592 3.83126 15.9261 3.83126 15.5356 4.22179L14.8284 4.92893L16.2427 6.34317C16.6332 6.7337 16.6332 7.36686 16.2427 7.75739C15.8521 8.14791 15.219 8.14791 14.8284 7.75739L13.4142 6.34314L12 7.7573L12.7072 8.46443C13.0977 8.85496 13.0977 9.48812 12.7072 9.87865C12.3167 10.2692 11.6835 10.2692 11.293 9.87865L10.5858 9.17151L9.17159 10.5858L10.5859 12C10.9764 12.3906 10.9764 13.0237 10.5859 13.4142C10.1953 13.8048 9.56217 13.8048 9.17165 13.4142L7.75737 12L6.34319 13.4142L7.05032 14.1213C7.44085 14.5118 7.44085 15.145 7.05032 15.5355C6.6598 15.926 6.02663 15.926 5.63611 15.5355L4.92897 14.8284L4.22185 15.5355C3.83132 15.926 3.83132 16.5592 4.22185 16.9497L7.05028 19.7781C7.4408 20.1687 8.07397 20.1687 8.46449 19.7781L19.7782 8.46443C20.1687 8.0739 20.1687 7.44074 19.7782 7.05021L16.9498 4.22179Z" fill="current"/>
</svg>
