<svg width="current" height="current" viewBox="0 0 181 54" fill="none" xmlns="http://www.w3.org/2000/svg">
<rect width="181" height="54" rx="10" fill="white"/>
<rect width="24" height="24" transform="translate(15 15)" fill="white"/>
<path fill-rule="evenodd" clip-rule="evenodd" d="M38.04 27.2613C38.04 26.4459 37.9668 25.6618 37.8309 24.9091H27V29.3575H33.1891C32.9225 30.795 32.1123 32.0129 30.8943 32.8284V35.7138H34.6109C36.7855 33.7118 38.04 30.7636 38.04 27.2613Z" fill="#4285F4"/>
<path fill-rule="evenodd" clip-rule="evenodd" d="M27 38.4998C30.105 38.4998 32.7081 37.47 34.6109 35.7137L30.8943 32.8282C29.8645 33.5182 28.5472 33.9259 27 33.9259C24.0047 33.9259 21.4695 31.903 20.5652 29.1848H16.7231V32.1644C18.6154 35.9228 22.5045 38.4998 27 38.4998Z" fill="#34A853"/>
<path fill-rule="evenodd" clip-rule="evenodd" d="M20.5652 29.1851C20.3352 28.4951 20.2045 27.7581 20.2045 27.0001C20.2045 26.2422 20.3352 25.5051 20.5652 24.8151V21.8356H16.7232C15.9443 23.3881 15.5 25.1444 15.5 27.0001C15.5 28.8558 15.9443 30.6122 16.7232 32.1647L20.5652 29.1851Z" fill="#FBBC05"/>
<path fill-rule="evenodd" clip-rule="evenodd" d="M27 20.0739C28.6884 20.0739 30.2043 20.6541 31.3961 21.7936L34.6945 18.4952C32.7029 16.6395 30.0997 15.5 27 15.5C22.5045 15.5 18.6154 18.077 16.7231 21.8355L20.5652 24.815C21.4695 22.0968 24.0047 20.0739 27 20.0739Z" fill="#EA4335"/>
<path d="M65.127 25.4609V30.3477C64.9453 30.5879 64.6611 30.8516 64.2744 31.1387C63.8936 31.4199 63.3867 31.6631 62.7539 31.8682C62.1211 32.0732 61.333 32.1758 60.3896 32.1758C59.5869 32.1758 58.8516 32.041 58.1836 31.7715C57.5156 31.4961 56.9385 31.0947 56.4521 30.5674C55.9717 30.04 55.5996 29.3984 55.3359 28.6426C55.0723 27.8809 54.9404 27.0137 54.9404 26.041V25.1533C54.9404 24.1865 55.0605 23.3252 55.3008 22.5693C55.5469 21.8076 55.8984 21.1631 56.3555 20.6357C56.8125 20.1084 57.3633 19.71 58.0078 19.4404C58.6582 19.165 59.3936 19.0273 60.2139 19.0273C61.2627 19.0273 62.1299 19.2031 62.8154 19.5547C63.5068 19.9004 64.04 20.3809 64.415 20.9961C64.79 21.6113 65.0273 22.3145 65.127 23.1055H62.9648C62.8945 22.6602 62.7568 22.2617 62.5518 21.9102C62.3525 21.5586 62.0654 21.2832 61.6904 21.084C61.3213 20.8789 60.8408 20.7764 60.249 20.7764C59.7393 20.7764 59.291 20.873 58.9043 21.0664C58.5176 21.2598 58.1953 21.5439 57.9375 21.9189C57.6855 22.2939 57.4951 22.751 57.3662 23.29C57.2373 23.8291 57.1729 24.4443 57.1729 25.1357V26.041C57.1729 26.7441 57.2461 27.3682 57.3926 27.9131C57.5449 28.458 57.7617 28.918 58.043 29.293C58.3301 29.668 58.6787 29.9521 59.0889 30.1455C59.499 30.333 59.9619 30.4268 60.4775 30.4268C60.9814 30.4268 61.3945 30.3857 61.7168 30.3037C62.0391 30.2158 62.2939 30.1133 62.4814 29.9961C62.6748 29.873 62.8242 29.7559 62.9297 29.6445V27.1045H60.2666V25.4609H65.127ZM66.9551 27.3506V27.1484C66.9551 26.4629 67.0547 25.8271 67.2539 25.2412C67.4531 24.6494 67.7402 24.1367 68.1152 23.7031C68.4961 23.2637 68.959 22.9238 69.5039 22.6836C70.0547 22.4375 70.6758 22.3145 71.3672 22.3145C72.0645 22.3145 72.6855 22.4375 73.2305 22.6836C73.7812 22.9238 74.2471 23.2637 74.6279 23.7031C75.0088 24.1367 75.2988 24.6494 75.498 25.2412C75.6973 25.8271 75.7969 26.4629 75.7969 27.1484V27.3506C75.7969 28.0361 75.6973 28.6719 75.498 29.2578C75.2988 29.8438 75.0088 30.3564 74.6279 30.7959C74.2471 31.2295 73.7842 31.5693 73.2393 31.8154C72.6943 32.0557 72.0762 32.1758 71.3848 32.1758C70.6875 32.1758 70.0635 32.0557 69.5127 31.8154C68.9678 31.5693 68.5049 31.2295 68.124 30.7959C67.7432 30.3564 67.4531 29.8438 67.2539 29.2578C67.0547 28.6719 66.9551 28.0361 66.9551 27.3506ZM69.0732 27.1484V27.3506C69.0732 27.7783 69.1172 28.1826 69.2051 28.5635C69.293 28.9443 69.4307 29.2783 69.6182 29.5654C69.8057 29.8525 70.0459 30.0781 70.3389 30.2422C70.6318 30.4062 70.9805 30.4883 71.3848 30.4883C71.7773 30.4883 72.1172 30.4062 72.4043 30.2422C72.6973 30.0781 72.9375 29.8525 73.125 29.5654C73.3125 29.2783 73.4502 28.9443 73.5381 28.5635C73.6318 28.1826 73.6787 27.7783 73.6787 27.3506V27.1484C73.6787 26.7266 73.6318 26.3281 73.5381 25.9531C73.4502 25.5723 73.3096 25.2354 73.1162 24.9424C72.9287 24.6494 72.6885 24.4209 72.3955 24.2568C72.1084 24.0869 71.7656 24.002 71.3672 24.002C70.9688 24.002 70.623 24.0869 70.3301 24.2568C70.043 24.4209 69.8057 24.6494 69.6182 24.9424C69.4307 25.2354 69.293 25.5723 69.2051 25.9531C69.1172 26.3281 69.0732 26.7266 69.0732 27.1484ZM77.168 27.3506V27.1484C77.168 26.4629 77.2676 25.8271 77.4668 25.2412C77.666 24.6494 77.9531 24.1367 78.3281 23.7031C78.709 23.2637 79.1719 22.9238 79.7168 22.6836C80.2676 22.4375 80.8887 22.3145 81.5801 22.3145C82.2773 22.3145 82.8984 22.4375 83.4434 22.6836C83.9941 22.9238 84.46 23.2637 84.8408 23.7031C85.2217 24.1367 85.5117 24.6494 85.7109 25.2412C85.9102 25.8271 86.0098 26.4629 86.0098 27.1484V27.3506C86.0098 28.0361 85.9102 28.6719 85.7109 29.2578C85.5117 29.8438 85.2217 30.3564 84.8408 30.7959C84.46 31.2295 83.9971 31.5693 83.4521 31.8154C82.9072 32.0557 82.2891 32.1758 81.5977 32.1758C80.9004 32.1758 80.2764 32.0557 79.7256 31.8154C79.1807 31.5693 78.7178 31.2295 78.3369 30.7959C77.9561 30.3564 77.666 29.8438 77.4668 29.2578C77.2676 28.6719 77.168 28.0361 77.168 27.3506ZM79.2861 27.1484V27.3506C79.2861 27.7783 79.3301 28.1826 79.418 28.5635C79.5059 28.9443 79.6436 29.2783 79.8311 29.5654C80.0186 29.8525 80.2588 30.0781 80.5518 30.2422C80.8447 30.4062 81.1934 30.4883 81.5977 30.4883C81.9902 30.4883 82.3301 30.4062 82.6172 30.2422C82.9102 30.0781 83.1504 29.8525 83.3379 29.5654C83.5254 29.2783 83.6631 28.9443 83.751 28.5635C83.8447 28.1826 83.8916 27.7783 83.8916 27.3506V27.1484C83.8916 26.7266 83.8447 26.3281 83.751 25.9531C83.6631 25.5723 83.5225 25.2354 83.3291 24.9424C83.1416 24.6494 82.9014 24.4209 82.6084 24.2568C82.3213 24.0869 81.9785 24.002 81.5801 24.002C81.1816 24.002 80.8359 24.0869 80.543 24.2568C80.2559 24.4209 80.0186 24.6494 79.8311 24.9424C79.6436 25.2354 79.5059 25.5723 79.418 25.9531C79.3301 26.3281 79.2861 26.7266 79.2861 27.1484ZM93.876 22.4902H95.8008V31.7363C95.8008 32.5918 95.6191 33.3184 95.2559 33.916C94.8926 34.5137 94.3857 34.9678 93.7354 35.2783C93.085 35.5947 92.332 35.7529 91.4766 35.7529C91.1133 35.7529 90.709 35.7002 90.2637 35.5947C89.8242 35.4893 89.3965 35.3193 88.9805 35.085C88.5703 34.8564 88.2275 34.5547 87.9521 34.1797L88.9453 32.9316C89.2852 33.3359 89.6602 33.6318 90.0703 33.8193C90.4805 34.0068 90.9111 34.1006 91.3623 34.1006C91.8486 34.1006 92.2617 34.0098 92.6016 33.8281C92.9473 33.6523 93.2139 33.3916 93.4014 33.0459C93.5889 32.7002 93.6826 32.2783 93.6826 31.7803V24.6436L93.876 22.4902ZM87.416 27.3506V27.166C87.416 26.4453 87.5039 25.7891 87.6797 25.1973C87.8555 24.5996 88.1074 24.0869 88.4355 23.6592C88.7637 23.2256 89.1621 22.8945 89.6309 22.666C90.0996 22.4316 90.6299 22.3145 91.2217 22.3145C91.8369 22.3145 92.3613 22.4258 92.7949 22.6484C93.2344 22.8711 93.6006 23.1904 93.8936 23.6064C94.1865 24.0166 94.415 24.5088 94.5791 25.083C94.749 25.6514 94.875 26.2842 94.957 26.9814V27.5703C94.8809 28.25 94.752 28.8711 94.5703 29.4336C94.3887 29.9961 94.1484 30.4824 93.8496 30.8926C93.5508 31.3027 93.1816 31.6191 92.7422 31.8418C92.3086 32.0645 91.7959 32.1758 91.2041 32.1758C90.624 32.1758 90.0996 32.0557 89.6309 31.8154C89.168 31.5752 88.7695 31.2383 88.4355 30.8047C88.1074 30.3711 87.8555 29.8613 87.6797 29.2754C87.5039 28.6836 87.416 28.042 87.416 27.3506ZM89.5342 27.166V27.3506C89.5342 27.7842 89.5752 28.1885 89.6572 28.5635C89.7451 28.9385 89.877 29.2695 90.0527 29.5566C90.2344 29.8379 90.4629 30.0605 90.7383 30.2246C91.0195 30.3828 91.3506 30.4619 91.7314 30.4619C92.2295 30.4619 92.6367 30.3564 92.9531 30.1455C93.2754 29.9346 93.5215 29.6504 93.6914 29.293C93.8672 28.9297 93.9902 28.5254 94.0605 28.0801V26.4893C94.0254 26.1436 93.9521 25.8213 93.8408 25.5225C93.7354 25.2236 93.5918 24.9629 93.4102 24.7402C93.2285 24.5117 93 24.3359 92.7246 24.2129C92.4492 24.084 92.124 24.0195 91.749 24.0195C91.3682 24.0195 91.0371 24.1016 90.7559 24.2656C90.4746 24.4297 90.2432 24.6553 90.0615 24.9424C89.8857 25.2295 89.7539 25.5635 89.666 25.9443C89.5781 26.3252 89.5342 26.7324 89.5342 27.166ZM100.266 18.5V32H98.1387V18.5H100.266ZM106.778 32.1758C106.075 32.1758 105.439 32.0615 104.871 31.833C104.309 31.5986 103.828 31.2734 103.43 30.8574C103.037 30.4414 102.735 29.9521 102.524 29.3896C102.313 28.8271 102.208 28.2207 102.208 27.5703V27.2188C102.208 26.4746 102.316 25.8008 102.533 25.1973C102.75 24.5938 103.052 24.0781 103.438 23.6504C103.825 23.2168 104.282 22.8857 104.81 22.6572C105.337 22.4287 105.908 22.3145 106.523 22.3145C107.203 22.3145 107.798 22.4287 108.308 22.6572C108.817 22.8857 109.239 23.208 109.573 23.624C109.913 24.0342 110.165 24.5234 110.329 25.0918C110.499 25.6602 110.584 26.2871 110.584 26.9727V27.8779H103.236V26.3574H108.492V26.1904C108.48 25.8096 108.404 25.4521 108.264 25.1182C108.129 24.7842 107.921 24.5146 107.64 24.3096C107.358 24.1045 106.983 24.002 106.515 24.002C106.163 24.002 105.85 24.0781 105.574 24.2305C105.305 24.377 105.079 24.5908 104.897 24.8721C104.716 25.1533 104.575 25.4932 104.476 25.8916C104.382 26.2842 104.335 26.7266 104.335 27.2188V27.5703C104.335 27.9863 104.391 28.373 104.502 28.7305C104.619 29.082 104.789 29.3896 105.012 29.6533C105.234 29.917 105.504 30.125 105.82 30.2773C106.137 30.4238 106.497 30.4971 106.901 30.4971C107.411 30.4971 107.865 30.3945 108.264 30.1895C108.662 29.9844 109.008 29.6943 109.301 29.3193L110.417 30.4004C110.212 30.6992 109.945 30.9863 109.617 31.2617C109.289 31.5312 108.888 31.751 108.413 31.9209C107.944 32.0908 107.399 32.1758 106.778 32.1758ZM116.529 30.146H131.289V31.388H116.529V30.146ZM123.135 26.672H124.611V30.668H123.135V26.672ZM118.329 18.32H129.453V23.252H119.841V26.51H118.365V22.064H127.977V19.544H118.329V18.32ZM118.365 25.88H129.831V27.104H118.365V25.88ZM134.69 18.842H145.166V20.066H134.69V18.842ZM133.088 29.786H147.794V31.028H133.088V29.786ZM144.356 18.842H145.832V20.48C145.832 21.164 145.82 21.896 145.796 22.676C145.784 23.444 145.736 24.296 145.652 25.232C145.568 26.168 145.424 27.224 145.22 28.4L143.708 28.238C143.924 27.134 144.074 26.12 144.158 25.196C144.254 24.272 144.308 23.42 144.32 22.64C144.344 21.86 144.356 21.14 144.356 20.48V18.842ZM161.49 17.132H162.984V29.012H161.49V17.132ZM152.526 31.82H163.488V33.044H152.526V31.82ZM152.526 27.806H154.02V32.234H152.526V27.806ZM154.254 18.266C155.07 18.266 155.796 18.434 156.432 18.77C157.068 19.106 157.572 19.58 157.944 20.192C158.316 20.792 158.502 21.482 158.502 22.262C158.502 23.042 158.316 23.738 157.944 24.35C157.572 24.95 157.068 25.424 156.432 25.772C155.796 26.108 155.07 26.276 154.254 26.276C153.45 26.276 152.724 26.108 152.076 25.772C151.44 25.424 150.936 24.95 150.564 24.35C150.192 23.738 150.006 23.042 150.006 22.262C150.006 21.482 150.192 20.792 150.564 20.192C150.936 19.58 151.44 19.106 152.076 18.77C152.724 18.434 153.45 18.266 154.254 18.266ZM154.254 19.562C153.726 19.562 153.252 19.676 152.832 19.904C152.412 20.132 152.076 20.45 151.824 20.858C151.584 21.266 151.464 21.734 151.464 22.262C151.464 22.802 151.584 23.276 151.824 23.684C152.076 24.08 152.412 24.392 152.832 24.62C153.252 24.848 153.726 24.962 154.254 24.962C154.782 24.962 155.256 24.848 155.676 24.62C156.108 24.392 156.444 24.08 156.684 23.684C156.924 23.276 157.044 22.802 157.044 22.262C157.044 21.734 156.924 21.266 156.684 20.858C156.444 20.45 156.108 20.132 155.676 19.904C155.256 19.676 154.782 19.562 154.254 19.562Z" fill="black" fill-opacity="0.54"/>
</svg>
