<svg width="current" height="current" viewBox="0 0 131 28" fill="none" xmlns="http://www.w3.org/2000/svg">
<g clip-path="url(#clip0_64_4253)">
<path d="M11.3491 14.5627L5.41687 6H0.5V22H5.65088V13.436L11.5831 22H16.5V6H11.3491V14.5627Z" fill="white"/>
</g>
<path d="M40.77 11.418H37.368V10.104H40.77V5.37H42.3V19.986H40.77V11.418ZM45.468 20.76H43.938V5.028H45.468V20.76ZM39.69 16.242C38.574 16.512 36.432 16.728 34.47 16.764H32.976V6.72H34.56V15.396C36.108 15.396 38.376 15.234 39.456 14.928L39.69 16.242ZM60.7362 20.76H59.1342V5.028H60.7362V20.76ZM48.3162 11.76C48.3162 8.646 49.5762 6.216 52.3662 6.216C55.1562 6.216 56.3982 8.646 56.3982 11.778C56.3982 14.892 55.1562 17.34 52.3662 17.34C49.5762 17.34 48.3162 14.892 48.3162 11.76ZM54.8142 11.778C54.8142 9.348 53.9862 7.584 52.3662 7.584C50.7642 7.584 49.9362 9.348 49.9362 11.778C49.9362 14.208 50.7642 15.954 52.3662 15.954C53.9862 15.954 54.8142 14.208 54.8142 11.778ZM74.7444 12.138H71.9184V10.788H74.7444V5.028H76.3284V20.76H74.7444V12.138ZM71.2164 16.8H63.8184V6.306H65.3844V10.266H69.6144V6.288H71.2164V16.8ZM69.6144 15.504V11.526H65.3844V15.504H69.6144ZM97.8372 18.762H83.6352V17.466H89.8992V14.982H85.3452V9.924H94.4892V7.62H85.3092V6.324H96.0732V11.22H86.9292V13.686H96.5052V14.982H91.5012V17.466H97.8372V18.762ZM113.411 18.474H99.2094V17.178H113.411V18.474ZM111.521 6.81C111.521 10.392 111.251 14.01 110.783 16.044L109.235 15.846C109.631 14.334 109.901 10.464 109.901 8.088H100.685V6.81H111.521ZM127.69 16.458H126.088V5.028H127.69V16.458ZM128.05 20.274H117.34V15.378H118.942V18.996H128.05V20.274ZM119.338 6.09C121.768 6.09 123.55 7.764 123.55 10.014C123.55 12.282 121.768 13.848 119.338 13.848C116.926 13.848 115.144 12.282 115.144 10.032C115.144 7.764 116.926 6.09 119.338 6.09ZM119.338 7.458C117.862 7.458 116.818 8.538 116.818 9.996C116.818 11.436 117.862 12.516 119.338 12.516C120.886 12.516 121.858 11.454 121.858 10.014C121.858 8.52 120.886 7.458 119.338 7.458Z" fill="white"/>
<defs>
<clipPath id="clip0_64_4253">
<rect width="16" height="16" fill="white" transform="translate(0.5 6)"/>
</clipPath>
</defs>
</svg>
